<mxfile host="app.diagrams.net" modified="2024-03-22T20:10:51.839Z" agent="Mozilla/5.0 (X11; Linux x86_64) AppleWebKit/537.36 (KHTML, like Gecko) Chrome/122.0.0.0 Safari/537.36" etag="Lg52et-QEDhDsg7Q5mzn" version="24.0.8" type="device">
  <diagram name="Page-1" id="xrwzOuVZZzLeXXRk-nAp">
    <mxGraphModel dx="1136" dy="616" grid="1" gridSize="10" guides="1" tooltips="1" connect="1" arrows="1" fold="1" page="1" pageScale="1" pageWidth="850" pageHeight="1100" math="0" shadow="0">
      <root>
        <mxCell id="0" />
        <mxCell id="1" parent="0" />
        <mxCell id="NPGGIsBCqjUQWWOEtnIC-9" value="&lt;div&gt;&lt;b&gt;&lt;font style=&quot;font-size: 19px;&quot;&gt;&lt;br&gt;&lt;/font&gt;&lt;/b&gt;&lt;/div&gt;&lt;b&gt;&lt;font style=&quot;font-size: 19px;&quot;&gt;&lt;div&gt;&lt;b&gt;&lt;font style=&quot;font-size: 19px;&quot;&gt;&lt;br&gt;&lt;/font&gt;&lt;/b&gt;&lt;/div&gt;&lt;div&gt;&lt;b&gt;&lt;font style=&quot;font-size: 19px;&quot;&gt;&lt;br&gt;&lt;/font&gt;&lt;/b&gt;&lt;/div&gt;&lt;div&gt;&lt;b&gt;&lt;font style=&quot;font-size: 19px;&quot;&gt;&lt;br&gt;&lt;/font&gt;&lt;/b&gt;&lt;/div&gt;&lt;div&gt;&lt;br&gt;&lt;/div&gt;&lt;div&gt;&lt;b style=&quot;background-color: initial; font-size: 12px;&quot;&gt;&lt;font style=&quot;font-size: 19px;&quot;&gt;High card&lt;/font&gt;&lt;/b&gt;&lt;br&gt;&lt;/div&gt;&lt;/font&gt;&lt;/b&gt;" style="rounded=1;whiteSpace=wrap;html=1;fillColor=none;textShadow=1;" vertex="1" parent="1">
          <mxGeometry x="580" y="80" width="580" height="180" as="geometry" />
        </mxCell>
        <mxCell id="NPGGIsBCqjUQWWOEtnIC-22" value="&lt;div&gt;&lt;font style=&quot;font-size: 19px;&quot;&gt;&lt;b&gt;&lt;br&gt;&lt;/b&gt;&lt;/font&gt;&lt;/div&gt;&lt;font style=&quot;font-size: 19px;&quot;&gt;&lt;b&gt;&lt;div&gt;&lt;font style=&quot;font-size: 19px;&quot;&gt;&lt;b&gt;&lt;br&gt;&lt;/b&gt;&lt;/font&gt;&lt;/div&gt;&lt;div&gt;&lt;font style=&quot;font-size: 19px;&quot;&gt;&lt;b&gt;&lt;br&gt;&lt;/b&gt;&lt;/font&gt;&lt;/div&gt;&lt;div&gt;&lt;font style=&quot;font-size: 19px;&quot;&gt;&lt;b&gt;&lt;br&gt;&lt;/b&gt;&lt;/font&gt;&lt;/div&gt;&lt;div&gt;&lt;font style=&quot;font-size: 19px;&quot;&gt;&lt;b&gt;&lt;br&gt;&lt;/b&gt;&lt;/font&gt;&lt;/div&gt;&lt;div&gt;&lt;font style=&quot;font-size: 19px;&quot;&gt;&lt;b&gt;&lt;br&gt;&lt;/b&gt;&lt;/font&gt;&lt;/div&gt;&lt;div&gt;&lt;br&gt;&lt;/div&gt;&lt;div&gt;&lt;br&gt;&lt;/div&gt;&lt;div&gt;&lt;font style=&quot;font-size: 19px;&quot;&gt;&lt;b&gt;&lt;br&gt;&lt;/b&gt;&lt;/font&gt;&lt;/div&gt;Paired&lt;/b&gt;&lt;/font&gt;" style="rounded=1;whiteSpace=wrap;html=1;fillColor=none;textShadow=1;" vertex="1" parent="1">
          <mxGeometry x="100" y="60" width="460" height="260" as="geometry" />
        </mxCell>
        <mxCell id="NPGGIsBCqjUQWWOEtnIC-11" value="&lt;div style=&quot;font-size: 19px;&quot;&gt;&lt;br&gt;&lt;/div&gt;&lt;div style=&quot;font-size: 19px;&quot;&gt;&lt;br&gt;&lt;/div&gt;&lt;div style=&quot;font-size: 19px;&quot;&gt;&lt;b&gt;&lt;div&gt;&lt;b&gt;&lt;br&gt;&lt;/b&gt;&lt;/div&gt;&lt;div&gt;&lt;b&gt;&lt;br&gt;&lt;/b&gt;&lt;/div&gt;&lt;div&gt;&lt;b&gt;&lt;br&gt;&lt;/b&gt;&lt;/div&gt;&lt;div&gt;&lt;b&gt;&lt;br&gt;&lt;/b&gt;&lt;/div&gt;&lt;div&gt;&lt;b&gt;&lt;br&gt;&lt;/b&gt;&lt;/div&gt;&lt;div&gt;&lt;br&gt;&lt;/div&gt;&lt;div&gt;&lt;br&gt;&lt;/div&gt;Suited&lt;/b&gt;&lt;br&gt;&lt;/div&gt;" style="rounded=1;whiteSpace=wrap;html=1;fillColor=none;textShadow=1;" vertex="1" parent="1">
          <mxGeometry x="680" y="60" width="280" height="260" as="geometry" />
        </mxCell>
        <mxCell id="NPGGIsBCqjUQWWOEtnIC-5" value="&lt;div&gt;&lt;font style=&quot;font-size: 19px;&quot;&gt;&lt;b&gt;&lt;br&gt;&lt;/b&gt;&lt;/font&gt;&lt;/div&gt;&lt;font style=&quot;font-size: 19px;&quot;&gt;&lt;b&gt;&lt;div&gt;&lt;font style=&quot;font-size: 19px;&quot;&gt;&lt;b&gt;&lt;br&gt;&lt;/b&gt;&lt;/font&gt;&lt;/div&gt;&lt;div&gt;&lt;font style=&quot;font-size: 19px;&quot;&gt;&lt;b&gt;&lt;br&gt;&lt;/b&gt;&lt;/font&gt;&lt;/div&gt;&lt;div&gt;&lt;font style=&quot;font-size: 19px;&quot;&gt;&lt;b&gt;&lt;br&gt;&lt;/b&gt;&lt;/font&gt;&lt;/div&gt;&lt;div&gt;&lt;font style=&quot;font-size: 19px;&quot;&gt;&lt;b&gt;&lt;br&gt;&lt;/b&gt;&lt;/font&gt;&lt;/div&gt;&lt;div&gt;&lt;font style=&quot;font-size: 19px;&quot;&gt;&lt;b&gt;&lt;br&gt;&lt;/b&gt;&lt;/font&gt;&lt;/div&gt;&lt;div&gt;&lt;br&gt;&lt;/div&gt;&lt;div&gt;&lt;br&gt;&lt;/div&gt;&lt;div&gt;&lt;font style=&quot;font-size: 19px;&quot;&gt;&lt;b&gt;&lt;br&gt;&lt;/b&gt;&lt;/font&gt;&lt;/div&gt;Rainbow&lt;/b&gt;&lt;/font&gt;" style="rounded=1;whiteSpace=wrap;html=1;fillColor=none;textShadow=1;" vertex="1" parent="1">
          <mxGeometry x="480" y="60" width="280" height="260" as="geometry" />
        </mxCell>
        <mxCell id="NPGGIsBCqjUQWWOEtnIC-7" value="&lt;b&gt;&lt;font style=&quot;font-size: 19px;&quot;&gt;Straight&lt;/font&gt;&lt;/b&gt;" style="rounded=1;whiteSpace=wrap;html=1;fillColor=none;strokeColor=default;textShadow=1;" vertex="1" parent="1">
          <mxGeometry x="980" y="100" width="160" height="40" as="geometry" />
        </mxCell>
        <mxCell id="NPGGIsBCqjUQWWOEtnIC-8" value="&lt;b&gt;&lt;font style=&quot;font-size: 19px;&quot;&gt;Straight flush&lt;/font&gt;&lt;/b&gt;" style="rounded=1;whiteSpace=wrap;html=1;fillColor=none;strokeColor=default;textShadow=1;" vertex="1" parent="1">
          <mxGeometry x="780" y="100" width="160" height="40" as="geometry" />
        </mxCell>
        <mxCell id="NPGGIsBCqjUQWWOEtnIC-13" value="&lt;b&gt;&lt;font style=&quot;font-size: 19px;&quot;&gt;One pair&lt;/font&gt;&lt;/b&gt;" style="rounded=1;whiteSpace=wrap;html=1;fillColor=none;textShadow=1;" vertex="1" parent="1">
          <mxGeometry x="120" y="80" width="160" height="40" as="geometry" />
        </mxCell>
        <mxCell id="NPGGIsBCqjUQWWOEtnIC-14" value="&lt;b&gt;&lt;font style=&quot;font-size: 19px;&quot;&gt;Two pair&lt;/font&gt;&lt;/b&gt;" style="rounded=1;whiteSpace=wrap;html=1;fillColor=none;textShadow=1;" vertex="1" parent="1">
          <mxGeometry x="120" y="140" width="160" height="40" as="geometry" />
        </mxCell>
        <mxCell id="NPGGIsBCqjUQWWOEtnIC-15" value="&lt;b&gt;&lt;font style=&quot;font-size: 19px;&quot;&gt;Three of a kind&lt;/font&gt;&lt;/b&gt;" style="rounded=1;whiteSpace=wrap;html=1;fillColor=none;textShadow=1;" vertex="1" parent="1">
          <mxGeometry x="120" y="200" width="160" height="40" as="geometry" />
        </mxCell>
        <mxCell id="NPGGIsBCqjUQWWOEtnIC-16" value="&lt;b&gt;&lt;font style=&quot;font-size: 19px;&quot;&gt;Three of a kind&lt;/font&gt;&lt;/b&gt;" style="rounded=1;whiteSpace=wrap;html=1;fillColor=none;textShadow=1;" vertex="1" parent="1">
          <mxGeometry x="300" y="80" width="160" height="40" as="geometry" />
        </mxCell>
        <mxCell id="NPGGIsBCqjUQWWOEtnIC-17" value="&lt;font style=&quot;font-size: 19px;&quot;&gt;&lt;b&gt;Flush&lt;/b&gt;&lt;/font&gt;" style="rounded=1;whiteSpace=wrap;html=1;fillColor=none;textShadow=1;" vertex="1" parent="1">
          <mxGeometry x="780" y="160" width="160" height="40" as="geometry" />
        </mxCell>
        <mxCell id="NPGGIsBCqjUQWWOEtnIC-18" value="&lt;b&gt;&lt;font style=&quot;font-size: 19px;&quot;&gt;Full house&lt;/font&gt;&lt;/b&gt;" style="rounded=1;whiteSpace=wrap;html=1;fillColor=none;textShadow=1;" vertex="1" parent="1">
          <mxGeometry x="300" y="140" width="160" height="40" as="geometry" />
        </mxCell>
        <mxCell id="NPGGIsBCqjUQWWOEtnIC-19" value="&lt;b&gt;&lt;font style=&quot;font-size: 19px;&quot;&gt;Four of a kind&lt;/font&gt;&lt;/b&gt;" style="rounded=1;whiteSpace=wrap;html=1;fillColor=none;textShadow=1;" vertex="1" parent="1">
          <mxGeometry x="300" y="200" width="160" height="40" as="geometry" />
        </mxCell>
      </root>
    </mxGraphModel>
  </diagram>
</mxfile>
